<svg xmlns="http://www.w3.org/2000/svg" viewBox="0 0 44.02 46.67"><g id="레이어_2" data-name="레이어 2"><g id="레이어_1-2" data-name="레이어 1"><path d="M21.36,0h0a7.69,7.69,0,0,0-7.69,7.69,7.16,7.16,0,0,0,1,3.79,45.56,45.56,0,0,0,5.13,6.68l1.56,1.68,1.57-1.68a45.56,45.56,0,0,0,5.13-6.68,7.16,7.16,0,0,0,1-3.79A7.69,7.69,0,0,0,21.36,0Zm0,10.63h0a3.18,3.18,0,1,1,0-6.36h0a3.18,3.18,0,1,1,0,6.36Z"/><circle cx="12.18" cy="43.04" r="3.63"/><circle cx="30.89" cy="43.04" r="3.63"/><path d="M39.53,22.22h-35A4.48,4.48,0,0,0,0,26.71V38.55A4.48,4.48,0,0,0,4.49,43H6.77a5.41,5.41,0,0,1,10.82,0h7.89A5.41,5.41,0,1,1,36.3,43h3.23A4.49,4.49,0,0,0,44,38.55V26.71A4.49,4.49,0,0,0,39.53,22.22ZM16.22,31.85a.58.58,0,0,1-.58-.58c0-1.46-.86-2.69-1.88-2.69s-1.89,1.23-1.89,2.69a.58.58,0,1,1-1.16,0c0-2.12,1.37-3.85,3-3.85s3,1.73,3,3.85A.58.58,0,0,1,16.22,31.85Zm5.14,4c-1.79,0-3.2-.93-3.2-2.12a.58.58,0,0,1,1.16,0c0,.39.8,1,2,1s2.05-.57,2.05-1a.58.58,0,0,1,1.16,0C24.57,35,23.16,35.89,21.36,35.89Zm10.83-4a.58.58,0,0,1-.58-.58c0-1.46-.86-2.69-1.88-2.69s-1.89,1.23-1.89,2.69a.58.58,0,0,1-1.16,0c0-2.12,1.37-3.85,3.05-3.85s3,1.73,3,3.85A.58.58,0,0,1,32.19,31.85Z"/></g></g></svg>